<?xml version="1.0" encoding="UTF-8" standalone="no"?>
<svg
   xmlns:dc="http://purl.org/dc/elements/1.1/"
   xmlns:cc="http://creativecommons.org/ns#"
   xmlns:rdf="http://www.w3.org/1999/02/22-rdf-syntax-ns#"
   xmlns:svg="http://www.w3.org/2000/svg"
   xmlns="http://www.w3.org/2000/svg"
   xmlns:sodipodi="http://sodipodi.sourceforge.net/DTD/sodipodi-0.dtd"
   xmlns:inkscape="http://www.inkscape.org/namespaces/inkscape"
   width="677.53705"
   height="200"
   viewBox="0 0 677.53705 200"
   version="1.1"
   id="svg80"
   sodipodi:docname="logo.svg"
   inkscape:version="0.92.5 (2060ec1f9f, 2020-04-08)"
   inkscape:export-filename="/home/wt247/pyfr_logo_wtext.png"
   inkscape:export-xdpi="96"
   inkscape:export-ydpi="96">
  <metadata
     id="metadata86">
    <rdf:RDF>
      <cc:Work
         rdf:about="">
        <dc:format>image/svg+xml</dc:format>
        <dc:type
           rdf:resource="http://purl.org/dc/dcmitype/StillImage" />
        <dc:title></dc:title>
      </cc:Work>
    </rdf:RDF>
  </metadata>
  <defs
     id="defs84" />
  <sodipodi:namedview
     pagecolor="#ffffff"
     bordercolor="#666666"
     borderopacity="1"
     objecttolerance="10"
     gridtolerance="10"
     guidetolerance="10"
     inkscape:pageopacity="0"
     inkscape:pageshadow="2"
     inkscape:window-width="2488"
     inkscape:window-height="1376"
     id="namedview82"
     showgrid="false"
     inkscape:zoom="1.39"
     inkscape:cx="465.21287"
     inkscape:cy="-8.9090292"
     inkscape:window-x="72"
     inkscape:window-y="27"
     inkscape:window-maximized="1"
     inkscape:current-layer="svg80"
     fit-margin-top="0"
     fit-margin-left="0"
     fit-margin-right="0"
     fit-margin-bottom="0" />
  <g
     id="g325">
    <path
       style="fill:#333333"
       d="M 200,100 A 100,100 0 0 1 100,200 100,100 0 0 1 0,100 100,100 0 0 1 100,0 100,100 0 0 1 200,100 Z"
       id="circle68" />
    <path
       style="fill:#333333"
       d="M 100,0 H 0 l 100,50 z"
       id="polygon70" />
    <path
       style="fill:#333333"
       d="M 50,100 0,200 V 100 Z"
       id="polygon72" />
    <path
       style="fill:#333333"
       d="M 200,200 100,150 v 50 z"
       id="polygon74" />
    <g
       aria-label="PyFR"
       style="font-size:182px;font-family:Helvetica;fill:#333333"
       id="text76">
      <path
         d="m 263.488,103.762 h 41.678 c 10.374,0 18.564,-3.094 25.662,-9.464 8.008,-7.28 11.466,-15.834 11.466,-28.028 0,-24.934 -14.742,-38.948 -40.95,-38.948 H 246.562 V 160 h 16.926 z m 0,-14.924 V 42.246 h 35.308 c 16.198,0 25.844,8.736 25.844,23.296 0,14.56 -9.646,23.296 -25.844,23.296 z"
         style="font-size:182px;font-family:Helvetica;fill:#333333"
         id="path331" />
      <path
         d="m 422.37377,64.632 -26.39,74.256 -24.388,-74.256 h -16.198 l 32.214,95.732 -5.824,15.106 c -2.548,6.734 -5.824,9.282 -12.194,9.282 -2.548,0 -4.732,-0.364 -8.008,-1.092 v 13.65 c 3.094,1.638 6.188,2.366 10.192,2.366 4.914,0 10.192,-1.638 14.196,-4.55 4.732,-3.458 7.462,-7.462 10.374,-15.106 l 42.406,-115.388 z"
         style="font-size:182px;font-family:Helvetica;fill:#333333"
         id="path333" />
      <path
         d="m 476.06342,99.576 h 63.336 V 84.652 h -63.336 V 42.246 h 72.072 V 27.322 h -88.998 V 160 h 16.926 z"
         style="font-size:182px;font-family:Helvetica;fill:#333333"
         id="path335" />
      <path
         d="m 587.81108,102.852 h 43.68 c 15.106,0 21.84,7.28 21.84,23.66 l -0.182,11.83 c 0,8.19 1.456,16.198 3.822,21.658 h 20.566 v -4.186 c -6.37,-4.368 -7.644,-9.1 -8.008,-26.754 -0.182,-21.84 -3.64,-28.392 -18.018,-34.58 14.924,-7.462 20.93,-16.38 20.93,-31.668 0,-22.932 -14.196,-35.49 -40.404,-35.49 h -61.152 V 160 h 16.926 z m 0,-14.924 V 42.246 h 40.95 c 9.464,0 14.924,1.456 19.11,5.096 4.55,3.822 6.916,9.828 6.916,17.654 0,15.834 -8.008,22.932 -26.026,22.932 z"
         style="font-size:182px;font-family:Helvetica;fill:#333333"
         id="path337" />
    </g>
    <path
       style="fill:#d8e6b8"
       d="m 165,100 a 65,65 0 0 1 -65,65 65,65 0 0 1 -65,-65 65,65 0 0 1 65,-65 65,65 0 0 1 65,65 z"
       id="circle78" />
  </g>
</svg>
